<svg xmlns="http://www.w3.org/2000/svg" width="16" height="16"><g stroke-opacity="1" fill-opacity=".5"><rect width="3.5" height="3.5" x="1" y="11.5" opacity="1" fill-opacity=".4" stroke="#fc7f7f" stroke-opacity="1" stroke-linejoin="bevel" stroke-width=".6" fill="#fc7f7f"/><rect width="3.5" height="3.5" x="4.5" y="11.5" opacity="1" fill-opacity=".4" stroke="#fc7f7f" fill="#fc7f7f" stroke-opacity="1" stroke-linejoin="bevel" stroke-width=".6"/><rect width="3.5" height="3.5" x="8" y="11.5" opacity="1" fill-opacity=".4" stroke="#fc7f7f" fill="#fc7f7f" stroke-opacity="1" stroke-linejoin="bevel" stroke-width=".6"/><polygon points="11.5 11.5 11.5 8 15 8 15 13 15 15" opacity="1" fill-opacity=".4" stroke="#fc7f7f" fill="#fc7f7f" stroke-opacity="1" stroke-linejoin="bevel" stroke-width=".6"/><polygon fill="#fc7f7f" points="11.5 15 11.5 11.5 15 15" stroke="#fc7f7f" stroke-linejoin="bevel" fill-opacity=".4" stroke-width=".6"/><rect width="3.5" height="3.5" x="11.5" y="4.5" opacity="1" fill-opacity=".4" stroke="#fc7f7f" fill="#fc7f7f" stroke-opacity="1" stroke-linejoin="bevel" stroke-width=".6"/><rect width="3.5" height="3.5" x="11.5" y="1" opacity="1" fill-opacity=".4" stroke="#fc7f7f" fill="#fc7f7f" stroke-opacity="1" stroke-linejoin="bevel" stroke-width=".6"/></g><g stroke-opacity="1"><polygon points="3.5 3 4.5 1 6.5 1 7.5 3 6.5 5 6.5 6 8 7 9.5 7 10 10 1 10 1.5 7 3 7 4.5 6 4.5 5" stroke="#fc7f7f" stroke-width=".5" fill-opacity="1" stroke-linejoin="round" fill="#ff0"/></g></svg>