<svg xmlns="http://www.w3.org/2000/svg" width="16" height="16"><g stroke-opacity="1" fill-opacity=".5"><rect width="3.5" height="3.5" x="1" y="11.5" opacity="1" fill-opacity=".4" stroke="#fff" stroke-opacity="1" stroke-linejoin="bevel" stroke-width=".6" fill="#fc7f7f"/><rect width="3.5" height="3.5" x="4.5" y="11.5" opacity="1" fill-opacity=".4" stroke="#fff" fill="#fc7f7f" stroke-opacity="1" stroke-linejoin="bevel" stroke-width=".6"/><rect width="3.5" height="3.5" x="11.5" y="4.5" opacity="1" fill-opacity=".4" stroke="#fff" fill="#fc7f7f" stroke-opacity="1" stroke-linejoin="bevel" stroke-width=".6"/><rect width="3.5" height="3.5" x="11.5" y="1" opacity="1" fill-opacity=".4" stroke="#fff" fill="#fc7f7f" stroke-opacity="1" stroke-linejoin="bevel" stroke-width=".6"/></g><g stroke-opacity="1"><polygon points="6 10 1 8 1 3.5 5.5 1 10.5 3 10.5 8" stroke="#fff" stroke-width=".5" fill-opacity="0" stroke-linejoin="round"/><polygon points="10.5 8 6 10 6 5 10.5 3" stroke="#fff" stroke-linejoin="bevel" fill="#fff" stroke-width=".6"/><line x2="6" stroke="#fff" y2="5" x1="1.5" y1="3.5" stroke-linecap="round" stroke-width=".7"/></g><polygon points="11 11 11 9 13 9 13 11 15 11 15 13 13 13 13 15 11 15 11 13 9 13 9 11" fill="#00ae00" stroke="#00ae00" stroke-width=".3" stroke-linejoin="round"/></svg>