<svg xmlns="http://www.w3.org/2000/svg" width="16" height="16"><g stroke-opacity="1" fill-opacity=".5"><rect width="4" height="3" x=".5" y="12.5" opacity="1" fill-opacity=".4" stroke="#fc7f7f" stroke-opacity="1" stroke-linejoin="bevel" stroke-width=".6" fill="#fc7f7f"/><rect width="4" height="3" x="4.5" y="12.5" opacity="1" fill-opacity=".4" stroke="#fc7f7f" fill="#fc7f7f" stroke-opacity="1" stroke-linejoin="bevel" stroke-width=".6"/><rect width="3.5" height="3" x="8.5" y="12.5" opacity="1" fill-opacity=".4" stroke="#fc7f7f" fill="#fc7f7f" stroke-opacity="1" stroke-linejoin="bevel" stroke-width=".6"/><polygon points="12 12.5 12 9.5 15.5 9.5 15.5 15.5" opacity="1" fill-opacity=".4" stroke="#fc7f7f" fill="#fc7f7f" stroke-opacity="1" stroke-linejoin="bevel" stroke-width=".6"/><polygon fill="#fc7f7f" points="12 15.5 12 12.5 15.5 15.5" stroke="#fc7f7f" stroke-linejoin="bevel" fill-opacity=".4" stroke-width=".6"/><rect width="3.5" height="4.5" x="12" y="5" opacity="1" fill-opacity=".4" stroke="#fc7f7f" fill="#fc7f7f" stroke-opacity="1" stroke-linejoin="bevel" stroke-width=".6"/><rect width="3.5" height="4.5" x="12" y=".5" opacity="1" fill-opacity=".4" stroke="#fc7f7f" fill="#fc7f7f" stroke-opacity="1" stroke-linejoin="bevel" stroke-width=".6"/></g><g stroke-opacity="1"><polygon points="3.5 2 3.5 1 4.5 1 4.5 2 6 1.5 6.5 2 5 3 4 3 4 5 3.5 5 3.5 4 2 4.5 1.5 4 3 3 1.5 2 2 1.5" stroke="#fc7f7f" stroke-width=".5" fill-opacity="1" stroke-linejoin="round" fill="#fc7f7f" transform="matrix(1 0 0 1-1-.5)"/></g><polygon points="4 3.5 11 3.5 8 6 11 9 9.5 10.5 6.5 7.5 4 9.5" fill="#fc7f7f" transform="matrix(1 0 0 1 0 0)"/></svg>