<svg xmlns="http://www.w3.org/2000/svg" width="16" height="16"><g stroke-opacity="1" fill-opacity=".5"><rect width="4" height="3" x=".5" y="12.5" opacity="1" fill-opacity=".4" stroke="#fc7f7f" stroke-opacity="1" stroke-linejoin="bevel" stroke-width=".6" fill="#fc7f7f"/><rect width="4" height="3" x="4.5" y="12.5" opacity="1" fill-opacity=".4" stroke="#fc7f7f" fill="#fc7f7f" stroke-opacity="1" stroke-linejoin="bevel" stroke-width=".6"/><rect width="3.5" height="3" x="8.5" y="12.5" opacity="1" fill-opacity=".4" stroke="#fc7f7f" fill="#fc7f7f" stroke-opacity="1" stroke-linejoin="bevel" stroke-width=".6"/><polygon points="12 12.5 12 9.5 15.5 9.5 15.5 15.5" opacity="1" fill-opacity=".4" stroke="#fc7f7f" fill="#fc7f7f" stroke-opacity="1" stroke-linejoin="bevel" stroke-width=".6"/><polygon fill="#fc7f7f" points="12 15.5 12 12.5 15.5 15.5" stroke="#fc7f7f" stroke-linejoin="bevel" fill-opacity=".4" stroke-width=".6"/><rect width="3.5" height="4.5" x="12" y="5" opacity="1" fill-opacity=".4" stroke="#fc7f7f" fill="#fc7f7f" stroke-opacity="1" stroke-linejoin="bevel" stroke-width=".6"/><rect width="3.5" height="4.5" x="12" y=".5" opacity="1" fill-opacity=".4" stroke="#fc7f7f" fill="#fc7f7f" stroke-opacity="1" stroke-linejoin="bevel" stroke-width=".6"/></g><g stroke-opacity="1"><polygon points="1 9 1 .5 4.5 2.5 7.5 .5 11 3 11 11.5 7.5 9.5 4.5 11.5" stroke="#fc7f7f" stroke-width=".5" fill-opacity="1" stroke-linejoin="round" fill="#fc7f7f"/></g><line x2="7.5" stroke="#fc0909" x1="7.5" y1="9.5" y2=".5" stroke-width=".6" stroke-linecap="round"/><line x2="4.5" stroke="#fc0909" x1="4.5" y1="11.5" y2="2.5" stroke-width=".6" stroke-linecap="round"/></svg>